<?xml version="1.0" encoding="utf-8"?>
<!-- Generator: Adobe Illustrator 24.0.0, SVG Export Plug-In . SVG Version: 6.00 Build 0)  -->
<svg version="1.1" id="Layer_1" xmlns="http://www.w3.org/2000/svg" xmlns:xlink="http://www.w3.org/1999/xlink" x="0px" y="0px"
	 viewBox="0 0 6131.7 3014.7" style="enable-background:new 0 0 6131.7 3014.7;" xml:space="preserve">
<style type="text/css">
	.st0{fill:#FFE000;}
</style>
<g transform="translate(0.000000,3000.000000) scale(0.100000,-0.100000)">
	<path class="st0" d="M13859,29056c-2-2-108-14-234-25c-127-12-306-28-400-37c-1260-116-2567-428-3760-896c-183-72-441-178-550-228
		c-33-15-118-53-190-85c-204-92-719-353-950-481c-798-443-1580-984-2270-1569c-527-447-1132-1048-1600-1590
		c-859-994-1617-2193-2162-3415c-35-80-73-165-84-189s-58-136-104-250c-420-1041-702-2071-871-3176c-42-275-84-645-108-935
		c-39-474-41-540-41-1175s2-703,41-1175c46-562,158-1335,254-1745c5-22,28-123,51-225c136-609,326-1236,560-1853
		c108-283,245-610,345-826c24-51,44-95,44-98c0-11,269-548,354-707c1199-2231,2990-4117,5136-5408c1116-671,2182-1132,3485-1507
		c85-25,534-139,590-150c22-5,94-21,160-35c467-105,1054-200,1548-251c540-55,853-70,1487-70c544,0,664,4,1080,35
		c455,35,995,103,1385,175c509,94,817,164,1265,287c682,187,1319,415,1985,710c207,92,706,336,875,428c63,34,138,75,165,90
		c601,326,1360,827,1901,1256c50,39,149,113,220,164c190,137,265,199,410,344c449,449,715,980,821,1641c22,140,25,620,5,760
		c-77,530-255,968-557,1370c-564,750-1449,1178-2380,1151c-267-7-496-41-705-102c-453-135-778-313-1180-647
		c-893-743-1956-1300-3060-1605c-533-147-974-225-1615-284c-191-18-1050-17-1240,0c-764,71-1262,167-1905,369
		c-139,43-373,124-415,143c-11,5-74,30-139,55c-715,278-1481,726-2121,1240c-785,631-1522,1492-2000,2335c-27,47-61,108-77,135
		c-38,66-265,522-302,605c-349,789-553,1536-665,2430c-55,435-70,1181-32,1595c6,61,13,144,16,185c21,259,99,745,160,1005
		c70,299,103,423,159,603c14,45,37,117,50,160c62,201,211,585,327,840c520,1147,1298,2160,2294,2986c977,810,2172,1399,3400,1675
		c77,18,158,36,180,41s78,16,125,25c47,8,108,19,135,25c242,46,685,94,1020,110c320,15,539,55,815,147c1172,392,1972,1503,1970,2737
		c0,179-32,469-65,601c-2,11-14,58-25,105c-83,357-281,758-536,1087c-90,117-356,381-474,473c-156,120-316,221-485,306
		c-423,213-843,313-1316,314C13951,29060,13861,29058,13859,29056z"/>
	<path class="st0" d="M19740,27885c-8-2-49-9-90-15c-82-14-245-67-324-107c-261-130-483-370-596-644c-107-256-119-584-34-848
		c77-233,230-453,419-599c33-26,66-53,74-60c18-17,207-111,276-137c145-54,672-336,1000-535c271-164,399-247,650-423
		c1571-1095,2868-2594,3718-4297c152-304,220-452,334-724c246-590,448-1211,585-1801c98-425,183-915,227-1315c6-52,15-135,21-185
		c34-304,52-713,52-1150s-18-846-52-1150c-6-49-15-133-21-185c-39-358-101-726-194-1165c-71-336-195-787-317-1149
		c-83-249-146-418-308-831c-81-207-110-459-76-664c101-600,616-1041,1216-1041c493,0,946,300,1139,755c76,180,283,741,384,1045
		c130,387,295,994,377,1380c124,587,179,935,250,1570c11,92,32,350,52,635c18,245,18,1355,0,1600c-20,285-41,543-52,635
		c-50,455-100,800-160,1125c-194,1044-497,2034-922,3020c-128,295-363,782-490,1015c-204,371-306,547-486,835
		c-943,1510-2198,2856-3637,3901c-650,472-1261,845-1980,1208c-126,63-261,133-300,154c-94,52-181,86-301,117c-82,22-127,27-259,30
		C19827,27887,19748,27887,19740,27885z"/>
	<path class="st0" d="M17985,23334c-392-69-730-323-900-679c-57-119-83-198-106-324c-70-385,56-790,331-1072c92-94,193-170,364-275
		c696-427,1345-999,1842-1624c97-122,174-222,204-266c8-12,49-71,91-131c96-137,255-392,346-553c70-124,226-434,272-540
		c13-30,34-79,47-108s24-55,24-58s7-20,15-37c21-46,102-260,126-331c11-33,24-70,29-81c4-11,23-67,40-125c18-58,39-125,47-150
		c8-24,20-69,28-100c8-30,25-100,40-155c112-430,169-824,205-1411c22-375-1-840-64-1294c-22-157-55-348-75-435c-18-78-42-191-50-230
		c-21-105-103-390-165-572c-24-70-48-155-55-188c-55-294-21-556,104-810c175-357,506-602,905-671c139-24,360-15,494,21
		c159,41,247,80,386,170c234,150,423,407,506,684c9,31,34,112,55,181c66,214,127,432,159,571c18,74,36,150,42,169
		c10,37,17,66,43,195c34,163,32,155,75,405c10,56,34,229,50,355c8,66,16,143,40,410c17,189,30,506,30,747c-1,374-38,939-80,1218
		c-6,36-15,101-21,145c-21,148-42,280-59,360c-6,28-20,97-31,155c-12,58-25,123-30,145c-25,124-111,465-139,555c-5,14-16,52-26,85
		c-9,33-24,83-32,110c-22,76-112,347-121,370c-5,11-21,54-36,95c-47,127-135,353-156,399c-11,24-29,64-39,90
		c-121,308-449,934-665,1271c-442,689-802,1138-1349,1685c-358,358-679,636-1046,907c-156,115-375,267-396,275
		c-17,6-226,139-399,252c-154,101-316,166-489,196C18287,23353,18093,23353,17985,23334z"/>
	<path class="st0" d="M13855,19580c-272-13-567-53-815-111c-152-35-158-37-345-95c-1249-386-2288-1317-2822-2529
		c-119-270-234-637-292-930c-18-94-25-132-50-295c-19-117-41-452-41-610c0-167,21-465,45-632c111-781,412-1505,886-2129
		c868-1142,2211-1809,3644-1809c191,0,481,19,610,39c33,6,105,17,160,26s118,20,140,25s74,16,115,26c454,100,940,299,1355,552
		c451,275,887,661,1204,1067c340,434,589,895,756,1398c315,951,309,1974-17,2932c-350,1028-1098,1930-2053,2476
		c-607,348-1334,565-1990,594C14071,19587,14020,19587,13855,19580z M14215,17110c536-46,985-256,1350-631c221-227,363-450,470-734
		c79-211,135-514,135-731c0-206-43-462-111-667c-225-675-780-1190-1477-1372c-186-49-282-60-522-60c-226,0-248,2-460,46
		c-347,73-713,269-984,529c-545,522-774,1295-596,2017c148,601,553,1110,1100,1384c244,122,464,185,740,214
		C14021,17121,14069,17122,14215,17110z"/>
</g>
<g>
	<path class="st0" d="M3375.6,1104.9c-76,0-139.3-24.9-189.9-74.7S3110,918,3110,843.1c0-73.9,25.1-136,75.5-186.3
		c50.1-50.1,112.8-75.1,188.1-75.1c66.9,0,122,17,165.3,50.9c43.7,34.2,71,73.5,81.8,117.9l-116.5,28.8c-6.6-22.9-21.6-42.9-45.3-60
		c-23.4-17.1-51.5-25.6-84.2-25.6c-42.6,0-76.9,14.4-102.8,43.2s-39,64-39,105.6c0,40.9,13.2,76.3,39.7,106
		c26.4,29.5,60.7,44.2,102.8,44.2c32.8,0,60.8-8.3,84.2-24.9c23.4-16.6,38.4-36.3,44.9-59l116.5,29.5
		c-10.8,43.8-37.8,82.5-81.1,116.2c-43,33.7-97.4,50.5-163.2,50.5L3375.6,1104.9L3375.6,1104.9z"/>
	<path class="st0" d="M3929.4,1105.6c-76.5,0-140-24.9-190.6-74.7c-50.5-49.8-75.8-112.2-75.8-187c0-74.9,25.3-137.2,75.8-187
		s114.1-74.7,190.6-74.7s140,24.9,190.6,74.7s75.8,112.1,75.8,186.7s-25.3,136.9-75.8,186.7s-114.1,74.7-190.6,74.7V1105.6z
		 M3929.4,995.4c43.5,0,78.6-14.4,105.3-43.2s40-64.9,40-108.4s-13.3-79.7-40-108.4s-61.8-43.2-105.3-43.2s-78.6,14.4-105.3,43.2
		s-40,64.9-40,108.4s13.3,79.7,40,108.4S3885.9,995.4,3929.4,995.4z"/>
	<path class="st0" d="M4618.7,985.6v109.1h-355.8V591.5h119.3v394.1H4618.7z"/>
	<path class="st0" d="M5031.7,985.6v109.1h-355.8V591.5h119.3v394.1H5031.7z"/>
	<path class="st0" d="M5423.7,998.6H5211l-35.4,96.2h-122.8l186-503.2h156.9l186,503.2h-122.8L5423.7,998.6z M5385.4,894.4
		l-68.1-188.5l-68.4,188.5H5385.4z"/>
	<path class="st0" d="M5981,831.6c52.2,25.5,78.3,65.3,78.3,119.3c0,45.2-15.7,80.4-47,105.6c-31.1,25.3-74.2,37.9-129.1,37.9
		h-258.6V591.2h245.7c51.2,0,92.6,12.6,124.2,37.9c31.6,25.3,47.4,58.4,47.4,99.3c0,46.1-20.1,80.5-60.4,103.2L5981,831.6
		L5981,831.6z M5740.9,694.3V795H5870c15.9,0,28.9-5,39-15.1c10.3-10.3,15.4-22.6,15.4-36.8c0-14.3-5.1-26.2-15.4-35.8
		c-10.1-9.6-23-14.2-39-13.7L5740.9,694.3z M5883.1,992.6c18,0,32-4.9,42.1-14.7c10.3-9.8,15.4-22.3,15.4-37.5
		c0-15.9-5-28.5-15.1-37.9s-24.2-14-42.5-14h-142.1v104.2L5883.1,992.6L5883.1,992.6z"/>
	<path class="st0" d="M3664.5,1211.5v503.2h-119.3V1420l-148.1,202.1L3249.7,1420v294.8h-119.3v-503.2h113.4l154.1,223.5l153-223.5
		h113.6V1211.5z"/>
	<path class="st0" d="M4337.4,1211.5v294.1c0,66.2-19.7,119.3-59,159.3s-94.2,60-164.6,60c-70.9,0-125.9-20-164.9-60
		c-39.1-40.2-58.6-93.3-58.6-159.3v-294.1H4011v292c0,33.2,8.8,60.2,26.3,81.1c17.5,20.6,43.2,30.9,76.9,30.9
		c33.7,0,59.3-10.3,76.9-30.9c17.5-20.8,26.3-47.8,26.3-81.1v-292H4337.4z"/>
	<path class="st0" d="M4768.3,1727c-59.2,0-109.4-14.7-150.5-44.2c-40.9-29.5-69.4-65.6-85.3-108.4l113.7-35.1
		c10.1,24.8,26.3,44.9,48.8,60.4c22.5,15.4,49.5,23.2,81.1,23.2c23.6,0,42.6-4.7,56.9-14c14.5-9.6,21.8-20.8,21.8-33.7
		c0-20.8-18-37-54-48.4l-129.5-40c-34.9-10.8-62.9-27.8-84.2-51.2c-21.1-22.9-31.4-50.3-30.9-82.1c-0.2-41.9,17.3-77.3,52.6-106.3
		c35.6-29.2,80.1-43.9,133.7-43.9c53.3,0,100.2,12.8,140.7,38.3c40.9,25.7,68.2,57,81.8,93.7l-109.8,32.3
		c-10.1-17.8-25.2-32.3-45.3-43.5c-19.9-11.2-42-16.8-66.3-16.8c-19.9,0-36,3.9-48.4,11.6c-12.2,7.7-18.2,17.5-18.2,29.5
		c0,17.1,11.2,29,33.7,35.8l126.7,40.4c44,13.8,77.9,31,101.8,51.6s35.8,50.4,35.8,89.5c0,45.6-19.1,83.6-57.2,114.1
		c-38.1,30.4-88,45.6-149.5,45.6L4768.3,1727z"/>
	<path class="st0" d="M5183.3,1211.5H5304v503.2h-120.7V1211.5z"/>
	<path class="st0" d="M5779.7,1724.9c-76,0-139.3-24.9-189.9-74.7s-75.8-112.2-75.8-187c0-73.9,25.1-136,75.5-186.3
		c50.1-50.1,112.8-75.1,188.1-75.1c66.9,0,122,17,165.3,50.9c43.7,34.2,71,73.5,81.8,117.9l-116.5,28.8c-6.6-22.9-21.6-42.9-45.3-60
		c-23.4-17.1-51.5-25.6-84.2-25.6c-42.6,0-76.9,14.4-102.8,43.2s-39,64-39,105.6c0,40.9,13.2,76.3,39.7,106
		c26.4,29.5,60.7,44.2,102.8,44.2c32.8,0,60.8-8.3,84.2-24.9c23.4-16.6,38.4-36.3,44.9-59l116.5,29.5
		c-10.8,43.8-37.8,82.5-81.1,116.2c-43,33.7-97.4,50.5-163.2,50.5h-1V1724.9z"/>
	<path class="st0" d="M3637.1,2108c0,69-23.5,125.6-70.5,169.9c-47,44.2-108.8,66.3-185.3,66.3c-78.4,0-143.1-25-194.1-75.1
		c-51.2-50.3-76.9-112.5-76.9-186.7c0-74.4,25.4-136.6,76.2-186.7s113.7-75.1,188.8-75.1c61.1,0,112.9,14.9,155.5,44.6
		c42.8,29.7,72.6,66.9,89.5,111.6l-110.9,31.6c-26.4-50.3-70.7-75.5-132.7-75.5c-42.3,0-77.2,14.4-104.6,43.2
		c-27.4,28.8-41.1,64-41.1,105.6s14,77.4,42.1,107.4c28.1,29.7,67.3,44.6,117.6,44.6c33.9,0,61.4-8.1,82.5-24.2
		c20.8-15.9,33.9-35.4,39.3-58.6l-132,0.7v-102.8h257.2L3637.1,2108z"/>
	<path class="st0" d="M3988.9,2169.5h-86.3v165.3h-117.9v-503.2h251.6c53.1,0,96.2,17.2,129.1,51.6c33,34.4,49.5,73.8,49.5,118.3
		c0,33-9,63.4-27,91.2s-43.3,48.4-75.8,61.8l121.4,180.4h-137.2L3988.9,2169.5z M3902.2,2064.9h124.9c20.6,0,37.7-6.2,51.2-18.6
		c13.3-12.4,20-27.5,20-45.3c0-17.3-6.4-32-19.3-44.2c-13.1-12.4-28.7-18.6-46.7-18.6h-129.8L3902.2,2064.9z"/>
	<path class="st0" d="M4611.2,2345.6c-76.5,0-140-24.9-190.6-74.7c-50.5-49.8-75.8-112.2-75.8-187c0-74.9,25.3-137.2,75.8-187
		s114.1-74.7,190.6-74.7s140,24.9,190.6,74.7s75.8,112.1,75.8,186.7c0,74.6-25.3,136.9-75.8,186.7s-114.1,74.7-190.6,74.7V2345.6z
		 M4611.2,2235.4c43.5,0,78.6-14.4,105.3-43.2s40-64.9,40-108.4s-13.3-79.7-40-108.4s-61.8-43.2-105.3-43.2s-78.6,14.4-105.3,43.2
		s-40,64.9-40,108.4s13.3,79.7,40,108.4S4567.7,2235.4,4611.2,2235.4z"/>
	<path class="st0" d="M5467.6,1831.5v294.1c0,66.2-19.7,119.3-59,159.3s-94.2,60-164.6,60c-70.9,0-125.9-20-164.9-60
		c-39.1-40.2-58.6-93.3-58.6-159.3v-294.1h120.7v292c0,33.2,8.8,60.2,26.3,81.1c17.5,20.6,43.2,30.9,76.9,30.9s59.3-10.3,76.9-30.9
		c17.5-20.8,26.3-47.8,26.3-81.1v-292H5467.6z"/>
	<path class="st0" d="M5873.1,1831.9c53.6,0,97.1,18.5,130.5,55.4c33.5,37,50.2,78.7,50.2,125.3c0,47.3-16.8,89.4-50.5,126.3
		c-33.7,36.7-78.5,55.1-134.4,55.1h-119.3v140.7h-117.9v-503.2h242.1L5873.1,1831.9z M5865.7,2087.3c21.1,0,38.4-7.4,51.9-22.1
		c13.6-14.5,20.4-31.7,20.4-51.6s-6.4-37.1-19.3-51.6c-12.9-14.7-29-22.1-48.4-22.1h-121.4v147.7h116.5L5865.7,2087.3z"/>
</g>
</svg>
